
<svg width="100" height="100" viewBox="0 0 100 100" xmlns="http://www.w3.org/2000/svg">
    <defs>
        <linearGradient id="brainGradient" x1="0%" y1="0%" x2="100%" y2="100%">
            <stop offset="0%" style="stop-color:#667eea;stop-opacity:1" />
            <stop offset="100%" style="stop-color:#764ba2;stop-opacity:1" />
        </linearGradient>
    </defs>
    <path d="M50 10 C70 10, 85 25, 85 45 C85 65, 70 80, 50 80 C30 80, 15 65, 15 45 C15 25, 30 10, 50 10 Z" 
          fill="url(#brainGradient)" opacity="0.8"/>
    <circle cx="35" cy="35" r="3" fill="#fff" opacity="0.9"/>
    <circle cx="50" cy="30" r="2" fill="#fff" opacity="0.7"/>
    <circle cx="65" cy="40" r="3" fill="#fff" opacity="0.9"/>
    <circle cx="40" cy="55" r="2" fill="#fff" opacity="0.6"/>
    <circle cx="60" cy="60" r="3" fill="#fff" opacity="0.8"/>
    <line x1="35" y1="35" x2="50" y2="30" stroke="#fff" stroke-width="1" opacity="0.5"/>
    <line x1="50" y1="30" x2="65" y2="40" stroke="#fff" stroke-width="1" opacity="0.5"/>
    <line x1="35" y1="35" x2="40" y2="55" stroke="#fff" stroke-width="1" opacity="0.5"/>
    <line x1="65" y1="40" x2="60" y2="60" stroke="#fff" stroke-width="1" opacity="0.5"/>
</svg>
        